# xmcd CD database file
#
# Track frame offsets:
#	150
#	15957
#	30082
#	45275
#	59520
#	71832
#	83802
#	97350
#	113015
#	128055
#	141120
#	153317
#
# Disc length: 2273 seconds
#
# Revision: 0
# Processed by: cddbd v1.5.2PL0 Copyright (c) Steve Scherf et al.
# Submitted via: CdAid (MTCDDB.DLL V2003.12.21)
#
DISCID=9208df0c
DTITLE=Miranda and João do Rio - Balanceio
DYEAR=2000
DGENRE=Country
TTITLE0=A Dor do Amor
TTITLE1=Mãe Cega
TTITLE2=Balanceio da Esperança
TTITLE3=Trem Bão
TTITLE4=Eu Acho É Bom
TTITLE5=Sou Rico Mas Não Sou Bobo
TTITLE6=Já Fui Bom Nisso
TTITLE7=Machado de Água Benta
TTITLE8=Mundo Moderno
TTITLE9=Bola e Viola
TTITLE10=O Bom Malandro
TTITLE11=Página de Saudade
EXTD=ID3G:   2 YEAR: 2000
EXTT0=
EXTT1=
EXTT2=
EXTT3=
EXTT4=
EXTT5=
EXTT6=
EXTT7=
EXTT8=
EXTT9=
EXTT10=
EXTT11=
PLAYORDER=
